# xmcd
#
# Track frame offsets:
#	180
#	12496
#	25367
#	38446
#	52390
#	64414
#	77338
#	91216
#	101703
#	113795
#	127130
#	137509
#	149964
#	161829
#	173839
#	184655
#	197174
#	210360
#	225509
#	240039
#	254069
#	265875
#	277157
#	290458
#	304307
#	316054
#
# Disc length: 4338 seconds
#
# Revision: 0
# Processed by: cddbd v1.5.1PL2 Copyright (c) Steve Scherf et al.
# Submitted via: EasyCDDAExtractor 10.0.2.1
#
DISCID=8210f01a
DTITLE=Homesick James  - Chicago Slide Guitar Legend
DYEAR=2000
DGENRE=Blues
TTITLE0=Johnny Mae Take 2
TTITLE1=Lonesome Old Train Take 1
TTITLE2=Lonesome Old Train Take 2
TTITLE3=Farmer's Blues
TTITLE4=Whiskey Headed Woman
TTITLE5=Williamson's Boogie
TTITLE6=Homesick Blues
TTITLE7=Dirty Rat
TTITLE8=The Woman I Love
TTITLE9=Wartime 
TTITLE10=Lonesome Blues
TTITLE11=Late Hours After Midnight
TTITLE12=Williamson Shuffle
TTITLE13=12th Street Station
TTITLE14=Long Lonesome Day
TTITLE15=Crossroads
TTITLE16=My Baby's Sweet
TTITLE17=My Kind of Woman
TTITLE18=Sunnyland/Homesick Special
TTITLE19=My Baby's Gone
TTITLE20=Set a Date
TTITLE21=Can't Afford To Do It
TTITLE22=Queen's Rock
TTITLE23=Can't Hold Out
TTITLE24=Crutch and Cane
TTITLE25=Got To Move
EXTD=
EXTT0=
EXTT1=
EXTT2=
EXTT3=
EXTT4=
EXTT5=
EXTT6=
EXTT7=
EXTT8=
EXTT9=
EXTT10=
EXTT11=
EXTT12=
EXTT13=
EXTT14=
EXTT15=
EXTT16=
EXTT17=
EXTT18=
EXTT19=
EXTT20=
EXTT21=
EXTT22=
EXTT23=
EXTT24=
EXTT25=
PLAYORDER=
